<svg version="1.2" xmlns="http://www.w3.org/2000/svg" viewBox="0 0 900 900" width="108" height="108">
	<title>Whisk_eb2c22fb73</title>
	<style>
		.s0 { fill: #588ed6 } 
	</style>
	<g id="Background">
		<path id="Path 10" class="s0" d="m251.5 301.5c-2.2 0.8-5.1 2.3-6.5 3.3-1.4 1-3.7 4.3-5.3 7.3l-2.7 5.4c0 234.2 0.1 240.2 1.9 244 1 2.2 3.1 5.3 4.7 6.9 1.6 1.6 4.3 3.5 5.9 4.2 1.6 0.7 22.8 5.8 47 11.4 24.2 5.6 58 13.3 75 17.1 17 3.8 33.4 7.6 36.3 8.4 3.2 1 7 3 10 5.6 2.6 2.3 6.5 5.2 8.7 6.4 2.2 1.3 6.5 3 9.5 3.9 3.1 0.9 9.1 1.6 13.8 1.6 5.7 0 10.1-0.6 14.5-2.1 3.4-1.2 8.5-3.6 11.2-5.5 2.8-1.9 6.8-4.8 9-6.4 3.4-2.5 8.1-3.9 32.5-9.4 15.7-3.6 48.1-11 72-16.6 23.9-5.6 47.3-11 52-12 6.8-1.6 9.4-2.7 12.9-5.7 2.5-2.1 5.3-5.6 6.3-7.8 1.7-3.8 1.8-10.6 1.8-124l0.1-120c-5-9.6-7-11.8-10.6-14-3.5-2.2-6.3-3.1-10.2-3.3l-5.3-0.2c0 193-0.1 249-0.2 249-0.2 0-17.6 4.1-38.8 9-21.2 5-54.5 12.7-74 17.1-19.5 4.5-38.6 9.2-42.5 10.5-3.9 1.3-8.7 3.6-10.8 5.2-2.1 1.5-6.2 4.2-9 5.9-2.9 1.8-6.8 3.5-8.7 3.9-1.9 0.3-5.3 0.1-7.5-0.5-2.2-0.6-6.7-3.2-10-5.7-3.3-2.5-8.3-5.7-11-7-2.8-1.3-16.5-5-30.5-8.3-14-3.3-47.8-11.1-75-17.5-27.2-6.3-50.7-11.7-52.3-12l-2.7-0.6v-249c-5.8 0.1-9.3 0.7-11.5 1.5z"/>
		<path id="Path 11" class="s0" d="m611 288.2l-7.5 3c0.5 220 0.5 221.9-1.5 225.8-1.6 3.3-3.2 4.5-8.5 7-3.6 1.6-15.6 7.1-26.8 12.1-11.1 5-32.6 14.7-47.7 21.5-15.1 6.9-31.1 14.2-35.5 16.3-4.6 2.2-10.5 6.2-13.9 9.2-3.2 3-6.8 6.8-8 8.4l-2.1 3c3.9-2.8 7.9-5.5 11.5-7.9 3.6-2.4 9.2-5.7 12.5-7.3 3.3-1.7 9.8-4.3 14.5-5.8 4.7-1.5 32.6-11.3 62-21.7 29.4-10.4 54.4-19.5 55.5-20.2 1.1-0.7 2.8-2.8 3.7-4.7 1.5-3.1 1.7-12.4 1.8-109.4 0.1-58.3 0.2-112 0.1-119.3-0.1-9.9-0.4-13.2-1.3-13.1-0.7 0-4.7 1.4-8.8 3.1z"/>
		<path id="Path 12" class="s0" d="m277 402.8c0 116.1 0.1 118.8 2 122.9 1.1 2.4 3 5 4.3 5.8 1.2 0.8 11.2 4.7 22.2 8.6 11 3.9 39.4 13.8 63 22.1 25.4 8.8 46.1 16.6 50.5 19 4.1 2.2 10.2 6.1 13.4 8.7 4.4 3.3 5.7 4 4.8 2.3-0.7-1.2-3.6-4.6-6.5-7.5-2.9-2.8-7.5-6.5-10.2-8.1-2.8-1.6-11.3-5.7-19-9.2-7.7-3.4-33.6-15-57.5-25.8-35.4-15.9-44-20.2-46.2-22.8-1.7-2-3.1-5.1-3.5-7.8-0.3-2.5-0.2-52.8 0.3-111.8l0.8-107.3c-13.5-6.1-17.6-7.9-17.9-7.9-0.3 0-0.5 53.4-0.5 118.7z"/>
		<path id="Path 13" class="s0" d="m528.5 301.3c-47.7 24.4-61.9 32.1-64.9 35.2-2.2 2.2-4.9 6-6 8.5-2 4.2-2.1 6.7-2.3 34.5l-0.3 30 78.9 80v-145c3.6-3.5 5.7-4.5 7.1-4.5 1.4-0.1 3.6 0.8 5 1.9l2.5 1.9v167.4c-3.9 3-6.1 3.9-7.5 3.8-1.9 0-11.7-9.3-44.2-42.2l-41.7-42.3c0 145.8 0.3 163.6 1.2 162.1 0.7-1 3-4.4 5.2-7.5 2.3-3.1 6.1-7.3 8.5-9.3 2.5-2 23.9-14.1 47.5-26.8 23.6-12.8 48-25.9 54-29.2 6-3.2 12-6.9 13.3-8.1 1.3-1.2 3.4-4.5 4.8-7.2l2.4-5c0-205.9-0.3-229.5-1.2-229.5-0.7 0.1-28.8 14.1-62.3 31.3z"/>
		<path id="Path 14" class="s0" d="m306.6 270.3c-0.2 0.8-0.4 52.7-0.3 115.3l0.2 113.9c3.4 7 5.7 10.2 7.2 11.7 1.5 1.5 9.8 6.5 18.3 11.1 8.5 4.6 31.7 17 51.5 27.7 19.8 10.6 37.7 20.4 39.7 21.7 2.1 1.2 5.6 4.1 7.8 6.3 2.2 2.2 5.8 6.8 8 10.2l4.1 6.3-0.1-177-23-23 0.1 138c-3.6 3.5-5.8 4.5-7.4 4.5-1.6 0-3.7-1-5.2-2.5l-2.5-2.5c0-121.7 0.3-157.7 0.7-158.6 0.5-0.9 2-2.3 3.5-3 1.6-0.8 3.6-1.4 4.5-1.4 1 0 8 6.2 15.6 13.8l13.8 13.7-0.6-48c-4.7-8.4-7.6-12.1-9.5-13.8-1.9-1.6-8.2-5.4-14-8.3-5.8-3-25.6-13.2-44-22.6-18.4-9.4-41.2-21.1-50.7-26-13.2-6.9-17.2-8.6-17.7-7.5z"/>
	</g>
</svg>