<svg
    xmlns="http://www.w3.org/2000/svg"
    viewBox="0 0 900 900"
    id="vector">
    <g id="group">
        <path
            id="path"
            d="M 251.5 301.5 C 249.3 302.3 246.4 303.8 245 304.8 C 243.6 305.8 241.3 309.1 239.7 312.1 L 237 317.5 C 237 551.7 237.1 557.7 238.9 561.5 C 239.9 563.7 242 566.8 243.6 568.4 C 245.2 570 247.9 571.9 249.5 572.6 C 251.1 573.3 272.3 578.4 296.5 584 C 320.7 589.6 354.5 597.3 371.5 601.1 C 388.5 604.9 404.9 608.7 407.8 609.5 C 411 610.5 414.8 612.5 417.8 615.1 C 420.4 617.4 424.3 620.3 426.5 621.5 C 428.7 622.8 433 624.5 436 625.4 C 439.1 626.3 445.1 627 449.8 627 C 455.5 627 459.9 626.4 464.3 624.9 C 467.7 623.7 472.8 621.3 475.5 619.4 C 478.3 617.5 482.3 614.6 484.5 613 C 487.9 610.5 492.6 609.1 517 603.6 C 532.7 600 565.1 592.6 589 587 C 612.9 581.4 636.3 576 641 575 C 647.8 573.4 650.4 572.3 653.9 569.3 C 656.4 567.2 659.2 563.7 660.2 561.5 C 661.9 557.7 662 550.9 662 437.5 L 662.1 317.5 C 657.1 307.9 655.1 305.7 651.5 303.5 C 648 301.3 645.2 300.4 641.3 300.2 L 636 300 C 636 493 635.9 549 635.8 549 C 635.6 549 618.2 553.1 597 558 C 575.8 563 542.5 570.7 523 575.1 C 503.5 579.6 484.4 584.3 480.5 585.6 C 476.6 586.9 471.8 589.2 469.7 590.8 C 467.6 592.3 463.5 595 460.7 596.7 C 457.8 598.5 453.9 600.2 452 600.6 C 450.1 600.9 446.7 600.7 444.5 600.1 C 442.3 599.5 437.8 596.9 434.5 594.4 C 431.2 591.9 426.2 588.7 423.5 587.4 C 420.7 586.1 407 582.4 393 579.1 C 379 575.8 345.2 568 318 561.6 C 290.8 555.3 267.3 549.9 265.7 549.6 L 263 549 L 263 300 C 257.2 300.1 253.7 300.7 251.5 301.5 Z"
            fill="#66b9d2"
            stroke-width="1"/>
        <path
            id="path_1"
            d="M 611 288.2 L 603.5 291.2 C 604 511.2 604 513.1 602 517 C 600.4 520.3 598.8 521.5 593.5 524 C 589.9 525.6 577.9 531.1 566.7 536.1 C 555.6 541.1 534.1 550.8 519 557.6 C 503.9 564.5 487.9 571.8 483.5 573.9 C 478.9 576.1 473 580.1 469.6 583.1 C 466.4 586.1 462.8 589.9 461.6 591.5 L 459.5 594.5 C 463.4 591.7 467.4 589 471 586.6 C 474.6 584.2 480.2 580.9 483.5 579.3 C 486.8 577.6 493.3 575 498 573.5 C 502.7 572 530.6 562.2 560 551.8 C 589.4 541.4 614.4 532.3 615.5 531.6 C 616.6 530.9 618.3 528.8 619.2 526.9 C 620.7 523.8 620.9 514.5 621 417.5 C 621.1 359.2 621.2 305.5 621.1 298.2 C 621 288.3 620.7 285 619.8 285.1 C 619.1 285.1 615.1 286.5 611 288.2 Z M 277 402.8 C 277 518.9 277.1 521.6 279 525.7 C 280.1 528.1 282 530.7 283.3 531.5 C 284.5 532.3 294.5 536.2 305.5 540.1 C 316.5 544 344.9 553.9 368.5 562.2 C 393.9 571 414.6 578.8 419 581.2 C 423.1 583.4 429.2 587.3 432.4 589.9 C 436.8 593.2 438.1 593.9 437.2 592.2 C 436.5 591 433.6 587.6 430.7 584.7 C 427.8 581.9 423.2 578.2 420.5 576.6 C 417.7 575 409.2 570.9 401.5 567.4 C 393.8 564 367.9 552.4 344 541.6 C 308.6 525.7 300 521.4 297.8 518.8 C 296.1 516.8 294.7 513.7 294.3 511 C 294 508.5 294.1 458.2 294.6 399.2 L 295.4 291.9 C 281.9 285.8 277.8 284 277.5 284 C 277.2 284 277 337.4 277 402.7 Z"
            fill="#66b9d2"
            stroke-width="1"/>
        <path
            id="path_2"
            d="M 528.5 301.3 C 480.8 325.7 466.6 333.4 463.6 336.5 C 461.4 338.7 458.7 342.5 457.6 345 C 455.6 349.2 455.5 351.7 455.3 379.5 L 455 409.5 L 533.9 489.5 L 533.9 344.5 C 537.5 341 539.6 340 541 340 C 542.4 339.9 544.6 340.8 546 341.9 L 548.5 343.8 L 548.5 511.2 C 544.6 514.2 542.4 515.1 541 515 C 539.1 515 529.3 505.7 496.8 472.8 L 455.1 430.5 C 455.1 576.3 455.4 594.1 456.3 592.6 C 457 591.6 459.3 588.2 461.5 585.1 C 463.8 582 467.6 577.8 470 575.8 C 472.5 573.8 493.9 561.7 517.5 549 C 541.1 536.2 565.5 523.1 571.5 519.8 C 577.5 516.6 583.5 512.9 584.8 511.7 C 586.1 510.5 588.2 507.2 589.6 504.5 L 592 499.5 C 592 293.6 591.7 270 590.8 270 C 590.1 270.1 562 284.1 528.5 301.3 Z M 306.6 270.3 C 306.4 271.1 306.2 323 306.3 385.6 L 306.5 499.5 C 309.9 506.5 312.2 509.7 313.7 511.2 C 315.2 512.7 323.5 517.7 332 522.3 C 340.5 526.9 363.7 539.3 383.5 550 C 403.3 560.6 421.2 570.4 423.2 571.7 C 425.3 572.9 428.8 575.8 431 578 C 433.2 580.2 436.8 584.8 439 588.2 L 443.1 594.5 L 443 417.5 L 420 394.5 L 420.1 532.5 C 416.5 536 414.3 537 412.7 537 C 411.1 537 409 536 407.5 534.5 L 405 532 C 405 410.3 405.3 374.3 405.7 373.4 C 406.2 372.5 407.7 371.1 409.2 370.4 C 410.8 369.6 412.8 369 413.7 369 C 414.7 369 421.7 375.2 429.3 382.8 L 443.1 396.5 L 442.5 348.5 C 437.8 340.1 434.9 336.4 433 334.7 C 431.1 333.1 424.8 329.3 419 326.4 C 413.2 323.4 393.4 313.2 375 303.8 C 356.6 294.4 333.8 282.7 324.3 277.8 C 311.1 270.9 307.1 269.2 306.6 270.3 Z"
            fill="#66b9d2"
            stroke-width="1"/>
    </g>
</svg>
